# AST/ASF file generated using VICON BodyLanguage
# -----------------------------------------------
:version 1.10
:name VICON
:units
  mass 1.0
  length 0.45
  angle deg
:documentation
   .ast/.asf automatically generated from VICON data using
   VICON BodyBuilder and BodyLanguage model FoxedUp or BRILLIANT.MOD
:root
   order TX TY TZ RX RY RZ
   axis XYZ
   position 0 0 0  
   orientation 0 0 0 
:bonedata
  begin
     id 1 
     name lhipjoint
     direction 0.643824 -0.71708 0.266994 
     length 2.52133 
     axis 0 0 0  XYZ
  end
  begin
     id 2 
     name lfemur
     direction 0.34202 -0.939693 0  
     length 7.51824  
     axis 0 0 20  XYZ
    dof rx ry rz
    limits (-160.0 20.0)
           (-70.0 70.0)
           (-60.0 70.0)
  end
  begin
     id 3 
     name ltibia
     direction 0.34202 -0.939693 0   
     length 7.3685   
     axis 0 0 20   XYZ
    dof rx
    limits (-10.0 170.0)
  end
  begin
     id 4 
     name lfoot
     direction 0.105419 -0.289636 0.951314   
     length 2.20972   
     axis -90 7.62852e-016 20   XYZ
    dof rx rz
    limits (-45.0 90.0)
           (-70.0 20.0)
  end
  begin
     id 5 
     name ltoes
     direction 1.53549e-011 -4.21833e-011 1   
     length 1.10139   
     axis -90 7.62852e-016 20   XYZ
    dof rx
    limits (-90.0 20.0)
  end
  begin
     id 6 
     name rhipjoint
     direction -0.608823 -0.743445 0.276811   
     length 2.43192  
     axis 0 0 0  XYZ 
  end
  begin
     id 7 
     name rfemur
     direction -0.34202 -0.939693 0   
     length 7.69715   
     axis 0 0 -20   XYZ
    dof rx ry rz
    limits (-160.0 20.0)
           (-70.0 70.0)
           (-70.0 60.0)
  end
  begin
     id 8 
     name rtibia
     direction -0.34202 -0.939693 0   
     length 7.44924   
     axis 0 0 -20   XYZ
    dof rx
    limits (-10.0 170.0)
 end
 begin
     id 9 
     name rfoot
     direction -0.103614 -0.284677 0.953007   
     length 2.22623  
     axis -90 -7.62852e-016 -20   XYZ
    dof rx rz
    limits (-45.0 90.0)
           (-20.0 70.0)
  end
  begin
     id 10 
     name rtoes
     direction -1.53537e-011 -4.22026e-011 1   
     length 1.11   
     axis -90 -7.62852e-016 -20   XYZ
    dof rx
    limits (-90.0 20.0)
  end
  begin
     id 11 
     name lowerback
     direction -0.0101212 0.99662 -0.0815298   
     length 2.08277   
     axis 0 0 0   XYZ
    dof rx ry rz
    limits (-20.0 45.0)
           (-30.0 30.0)
           (-30.0 30.0)
  end
  begin
     id 12 
     name upperback
     direction 0.024314 0.999591 -0.0150645   
     length 2.08524   
     axis 0 0 0   XYZ
    dof rx ry rz
    limits (-20.0 45.0)
           (-30.0 30.0)
           (-30.0 30.0)
  end
  begin
     id 13 
     name thorax
     direction 0.0285959 0.999323 0.0231357   
     length 2.09645   
     axis 0 0 0   XYZ
    dof rx ry rz
    limits (-20.0 45.0)
           (-30.0 30.0)
           (-30.0 30.0)
  end
  begin
     id 14 
     name lowerneck
     direction -0.065512 0.979301 0.191515   
     length 1.63798   
     axis 0 0 0   XYZ
    dof rx ry rz
    limits (-20.0 45.0)
           (-30.0 30.0)
           (-30.0 30.0)
  end
  begin
     id 15 
     name upperneck
     direction 0.0498479 0.98191 -0.182667   
     length 1.68731   
     axis 0 0 0   XYZ
    dof rx ry rz
    limits (-20.0 45.0)
           (-30.0 30.0)
           (-30.0 30.0)
  end
  begin
     id 16
     name head
     direction 0.0230358 0.996257 -0.0833175  
     length 1.69785  
     axis 0 0 0   XYZ
    dof rx ry rz
    limits (-20.0 45.0)
           (-30.0 30.0)
           (-30.0 30.0)
  end
  begin
     id 17 
     name lclavicle
     direction 0.967963 0.201165 -0.150269  
     length 3.63976  
     axis 0 0 0   XYZ
    dof ry rz
    limits (-20.0 10.0)
           (0.0 20.0)
  end
  begin
     id 18 
     name lhumerus
     direction 1 -4.48954e-011 -2.92837e-028   
     length 5.32462   
     axis 180 -30 -90   XYZ
    dof rx ry rz
    limits (-60.0 90.0)
           (-90.0 90.0)
           (-90.0 90.0)
  end
  begin
     id 19
     name lradius
     direction 1 -4.48958e-011 -6.39511e-027   
     length 3.48402   
     axis 180 -30 -90   XYZ
    dof rx
    limits (-10.0 170.0)
  end
  begin
     id 20
     name lwrist
     direction 1 -4.48975e-011 -1.1413e-026   
     length 1.74201   
     axis 6.88575e-015 90 90   XYZ
    dof ry
    limits (-180.0 0.0)
 end
  begin
     id 21 
     name lhand
     direction 1 -4.48899e-011 -2.28192e-026   
     length 0.572476   
     axis 1.45643e-014 90 90   XYZ
    dof rx rz
    limits (-90.0 90.0)
           (-45.0 45.0)
  end
  begin
     id 22 
     name lfingers
     direction 1 -4.49155e-011 -4.5684e-026   
     length 0.461545   
     axis 2.91283e-014 90 90   XYZ
    dof rx
    limits (0.0 90.0)
  end
  begin
     id 23
     name lthumb
     direction 0.707107 -6.34943e-011 0.707107   
     length 0.662688   
     axis -90 45 -2.25915e-014   XYZ
    dof rx rz
    limits (-45.0 45.0)
           (-45.0 45.0)
  end
  begin
     id 24 
     name rclavicle
     direction -0.964103 0.264019 -0.0282629   
     length 3.54491  
     axis 0 0 0   XYZ 
    dof ry rz
    limits (-10.0 20.0)
           (-20.0 0.0)
  end
  begin
     id 25 
     name rhumerus
     direction -1 -4.48964e-011 -2.45032e-027  
     length 5.33589   
     axis 180 30 90   XYZ
    dof rx ry rz
    limits (-90.0 60.0)
           (-90.0 90.0)
           (-90.0 90.0)
  end
  begin
     id 26 
     name rradius
     direction -1 -4.48987e-011 -1.55093e-027   
     length 3.64134   
     axis 180 30 90   XYZ
    dof rx
    limits (-10.0 170.0)
  end
  begin
     id 27 
     name rwrist
     direction -1 -4.4897e-011 -1.14128e-026   
     length 1.82067   
     axis 6.88575e-015 -90 -90   XYZ
    dof ry
    limits (-180.0 0.0)
  end
  begin
     id 28
     name rhand
     direction -1 -4.49021e-011 -2.28301e-026   
     length 0.734811   
     axis 1.45643e-014 -90 -90   XYZ
    dof rx rz
    limits (-90.0 90.0)
           (-45.0 45.0)
  end
  begin
     id 29
     name rfingers
     direction -1 -4.48862e-011 -4.56319e-026   
     length 0.592424   
     axis 2.91283e-014 -90 -90   XYZ
    dof rx
    limits (0.0 90.0)
  end
  begin
     id 30
     name rthumb
     direction -0.707107 -6.34978e-011 0.707107   
     length 0.850605   
     axis -90 -45 2.25915e-014   XYZ
    dof rx rz
    limits (-45.0 45.0)
           (-45.0 45.0)
  end
:hierarchy
  begin
    root lhipjoint rhipjoint lowerback
    lhipjoint lfemur
    lfemur ltibia
    ltibia lfoot
    lfoot ltoes
    rhipjoint rfemur
    rfemur rtibia
    rtibia rfoot
    rfoot rtoes
    lowerback upperback
    upperback thorax
    thorax lowerneck lclavicle rclavicle
    lowerneck upperneck
    upperneck head
    lclavicle lhumerus
    lhumerus lradius
    lradius lwrist
    lwrist lhand lthumb
    lhand lfingers
    rclavicle rhumerus
    rhumerus rradius
    rradius rwrist
    rwrist rhand rthumb
    rhand rfingers
  end

#!OML:ASF F:\VICON\USERDATA\INSTALL\rory3\rory3.ASF
:FULLY-SPECIFIED
:DEGREES
1
root -0.851369 17.7181 13.105 -172.31 -4.3624 177.681
lowerback -3.16239 -1.62846 -5.55724
upperback -1.2748 -2.0623 1.99909
thorax 0.726267 -1.04072 5.10884
lowerneck -17.3669 5.23618 -9.03957
upperneck 36.2994 6.89486 3.12614
head 15.0986 0.99066 3.78078
rclavicle 2.91716e-014 1.11319e-014
rhumerus -32.9542 -8.6919 -77.23
rradius 32.407
rwrist 18.6141
rhand -20.442 2.91612
rfingers 7.12502
rthumb 5.9131 -26.9814
lclavicle 2.91716e-014 1.11319e-014
lhumerus 7.76902 -35.5657 82.7091
lradius 134.119
lwrist 52.7842
lhand -18.1073 25.7029
lfingers 7.12502
lthumb 8.16673 55.525
rfemur -16.1821 2.16206 21.1696
rtibia 33.0077
rfoot -24.4834 -8.05462
rtoes 10.4399
lfemur -10.1572 -3.2453 -24.4291
ltibia 21.0987
lfoot -14.0086 4.00109
ltoes -14.7898
2
root -0.853111 17.7168 13.1006 -172.345 -4.41023 177.811
lowerback -3.14893 -1.63131 -5.45016
upperback -1.26721 -2.07093 2.04715
thorax 0.725889 -1.0456 5.09809
lowerneck -17.4513 5.20075 -9.07618
upperneck 36.3018 6.85586 3.1816
head 15.1177 0.980118 3.80855
rclavicle 1.49089e-016 -2.46493e-014
rhumerus -32.9991 -8.74554 -77.1819
rradius 32.4566
rwrist 18.6071
rhand -20.4669 3.01852
rfingers 7.12502
rthumb 5.88909 -26.8796
lclavicle 1.49089e-016 -2.46493e-014
lhumerus 7.88487 -35.6294 82.6729
lradius 134.056
lwrist 52.4096
lhand -15.2419 25.0214
lfingers 7.12502
lthumb 10.9314 54.7168
rfemur -16.1079 2.17013 21.3183
rtibia 32.9656
rfoot -24.521 -8.03541
rtoes 10.6257
lfemur -10.1527 -3.15014 -24.29
ltibia 21.1692
lfoot -14.1165 3.85989
ltoes -15.0489
3
root -0.854857 17.7168 13.0997 -172.349 -4.34072 177.77
lowerback -3.14468 -1.6081 -5.50984
upperback -1.27005 -2.03791 2.02565
thorax 0.717494 -1.02851 5.11123
lowerneck -17.4509 5.15609 -9.0822
upperneck 36.262 6.79155 3.1959
head 15.1031 0.959585 3.80461
rclavicle 1.41634e-014 1.59028e-014
rhumerus -33.0561 -8.77268 -77.1768
rradius 32.4962
rwrist 18.5715
rhand -20.4584 2.88716
rfingers 7.12502
rthumb 5.8973 -27.0108
lclavicle 1.41634e-014 1.59028e-014
lhumerus 8.0508 -35.7611 82.5584
lradius 134.077
lwrist 52.4389
lhand -14.8247 24.9417
lfingers 7.12502
lthumb 11.3338 54.6154
rfemur -16.1059 2.18212 21.2592
rtibia 32.9785
rfoot -24.4388 -7.93614
rtoes 10.7481
lfemur -10.1298 -3.05559 -24.3498
ltibia 21.1718
lfoot -14.1584 3.75004
ltoes -15.0364
4
root -0.858261 17.7179 13.1008 -172.278 -4.21579 177.745
lowerback -3.18221 -1.58051 -5.53275
upperback -1.29525 -1.99968 2.01173
thorax 0.707707 -1.00882 5.11088
lowerneck -17.5341 5.11437 -9.09014
upperneck 36.2783 6.74777 3.19253
head 15.1345 0.93868 3.80203
rclavicle 1.56543e-014 -2.22639e-014
rhumerus -33.0598 -8.75744 -77.1906
rradius 32.4861
rwrist 18.5876
rhand -20.3981 2.722
rfingers 7.12502
rthumb 5.95545 -27.1743
lclavicle 1.56543e-014 -2.22639e-014
lhumerus 8.13294 -35.8747 82.508
lradius 134.163
lwrist 52.8941
lhand -15.8841 24.9153
lfingers 7.12502
lthumb 10.3119 54.6425
rfemur -16.1934 2.24713 21.1978
rtibia 32.9773
rfoot -24.3954 -7.83896
rtoes 11.11
lfemur -10.2213 -3.01634 -24.4048
ltibia 21.1932
lfoot -14.1502 3.82276
ltoes -15.006
5
root -0.860007 17.7198 13.1021 -172.229 -4.13857 177.758
lowerback -3.19076 -1.57725 -5.58808
upperback -1.29816 -1.9942 2.04968
thorax 0.71182 -1.00632 5.18206
lowerneck -17.6699 5.08671 -9.0937
upperneck 36.3157 6.75011 3.14063
head 15.1881 0.928682 3.78854
rclavicle -1.54058e-014 1.66979e-014
rhumerus -32.9865 -8.80485 -77.1501
rradius 32.4533
rwrist 18.6903
rhand -20.2745 2.77186
rfingers 7.12502
rthumb 6.07485 -27.121
lclavicle -1.54058e-014 1.66979e-014
lhumerus 8.27592 -35.7114 82.4992
lradius 134.105
lwrist 53.7543
lhand -18.4812 25.007
lfingers 7.12502
lthumb 7.80591 54.8429
rfemur -16.2726 2.26893 21.2012
rtibia 32.9944
rfoot -24.31 -7.95003
rtoes 10.6235
lfemur -10.2834 -2.97086 -24.4011
ltibia 21.1816
lfoot -14.1325 3.83542
ltoes -14.8153
6
root -0.862866 17.7182 13.1009 -172.231 -4.16147 177.765
lowerback -3.16889 -1.60503 -5.61143
upperback -1.30829 -2.03257 2.07483
thorax 0.695777 -1.02495 5.22058
lowerneck -17.6534 1.40094 -7.89522
upperneck 36.2646 8.26396 1.35439
head 15.4083 3.78742 3.75733
rclavicle 1.54058e-015 -3.97569e-016
rhumerus -32.9707 -8.82464 -77.1151
rradius 32.4284
rwrist 18.7487
rhand -20.1805 2.84165
rfingers 7.12502
rthumb 6.16558 -27.0486
lclavicle 1.54058e-015 -3.97569e-016
lhumerus 8.37988 -35.2873 82.5526
lradius 133.927
lwrist 55.0945
lhand -22.283 25.2634
lfingers 7.12502
lthumb 4.13551 55.203
rfemur -16.2721 2.20759 21.2052
rtibia 33.0009
rfoot -24.2941 -7.99512
rtoes 10.2232
lfemur -10.2762 -2.90334 -24.4068
ltibia 21.1864
lfoot -14.1299 3.79938
ltoes -14.923
7
root -0.866874 17.7173 13.0975 -172.258 -4.24257 177.783
lowerback -3.171 -1.63327 -5.5583
upperback -1.27714 -2.0698 2.05643
thorax 0.731731 -1.04504 5.16882
lowerneck -17.7611 1.38051 -7.82876
upperneck 36.289 8.22488 1.32127
head 15.4526 3.76731 3.73161
rclavicle -1.59028e-014 8.34896e-015
rhumerus -32.9486 -8.9309 -77.1412
rradius 32.4174
rwrist 18.8712
rhand -20.3046 2.82202
rfingers 7.12502
rthumb 6.0457 -27.0717
lclavicle -1.59028e-014 8.34896e-015
lhumerus 8.55634 -35.1731 82.4574
lradius 133.819
lwrist 55.5738
lhand -24.1658 25.3974
lfingers 7.12502
lthumb 2.31721 55.3646
rfemur -16.2105 2.17103 21.218
rtibia 32.9915
rfoot -24.3433 -7.95322
rtoes 10.3626
lfemur -10.2371 -2.89132 -24.3977
ltibia 21.2218
lfoot -14.1778 3.77027
ltoes -14.9188
8
root -0.869246 17.7178 13.0978 -172.29 -4.27347 177.805
lowerback -3.13292 -1.64497 -5.54561
upperback -1.23588 -2.08544 2.05325
thorax 0.754636 -1.0539 5.15791
lowerneck -17.8338 1.38729 -7.72998
upperneck 36.226 8.2132 1.22224
head 15.4502 3.75444 3.66942
rclavicle 2.38045e-014 -2.06736e-014
rhumerus -32.8757 -8.93985 -77.1903
rradius 32.3996
rwrist 18.8719
rhand -20.4188 2.65558
rfingers 7.12502
rthumb 5.93553 -27.2413
lclavicle 2.38045e-014 -2.06736e-014
lhumerus 8.70585 -35.2482 82.3579
lradius 133.808
lwrist 55.172
lhand -23.3551 25.441
lfingers 7.12502
lthumb 3.10022 55.3982
rfemur -16.1704 2.21919 21.2406
rtibia 32.9809
rfoot -24.3517 -7.96078
rtoes 10.5397
lfemur -10.2273 -2.8415 -24.3772
ltibia 21.2605
lfoot -14.2493 3.67722
ltoes -14.8982
9
root -0.870724 17.7176 13.0993 -172.314 -4.27318 177.93
lowerback -3.10793 -1.63933 -5.4565
upperback -1.22684 -2.08278 2.10415
thorax 0.748502 -1.05295 5.16116
lowerneck -17.8106 1.38675 -7.74646
upperneck 36.1321 8.19905 1.18345
head 15.4018 3.73985 3.64544
rclavicle 2.39039e-014 1.19271e-014
rhumerus -32.8179 -8.81426 -77.1963
rradius 32.3311
rwrist 18.7747
rhand -20.537 2.65035
rfingers 7.12502
rthumb 5.82141 -27.2497
lclavicle 2.39039e-014 1.19271e-014
lhumerus 8.75043 -35.2429 82.3806
lradius 133.821
lwrist 54.9844
lhand -21.3128 25.4835
lfingers 7.12502
lthumb 5.0723 55.4028
rfemur -16.167 2.27488 21.3816
rtibia 32.9827
rfoot -24.3546 -8.09688
rtoes 10.2744
lfemur -10.2244 -2.86898 -24.2378
ltibia 21.2593
lfoot -14.2173 3.67974
ltoes -15.0592
10
root -0.872627 17.7176 13.0992 -172.342 -4.25549 177.921
lowerback -3.05756 -1.64662 -5.51234
upperback -1.21378 -2.09292 2.12626
thorax 0.737819 -1.05773 5.21674
lowerneck -17.8323 1.397 -7.78769
upperneck 36.0532 8.21259 1.1514
head 15.3684 3.73215 3.63583
rclavicle 6.5102e-015 -2.38542e-015
rhumerus -32.7382 -8.71867 -77.1844
rradius 32.2787
rwrist 18.6947
rhand -20.5048 2.75993
rfingers 7.12502
rthumb 5.85246 -27.1392
lclavicle 6.5102e-015 -2.38542e-015
lhumerus 8.80217 -35.1522 82.4351
lradius 133.825
lwrist 54.8274
lhand -19.946 25.7182
lfingers 7.12502
lthumb 6.39195 55.6017
rfemur -16.14 2.31351 21.3653
rtibia 32.9922
rfoot -24.3443 -8.13781
rtoes 10.3494
lfemur -10.188 -2.8779 -24.2523
ltibia 21.2417
lfoot -14.1939 3.65861
ltoes -14.9121
11
root -0.875735 17.7196 13.0971 -172.31 -4.19769 177.768
lowerback -3.06106 -1.67128 -5.7076
upperback -1.23992 -2.12015 2.10454
thorax 0.722151 -1.07002 5.30407
lowerneck -17.8251 1.40139 -7.81811
upperneck 36.0581 8.22055 1.17107
head 15.366 3.73393 3.65022
rclavicle -7.05686e-015 -2.98177e-014
rhumerus -32.7573 -8.66384 -77.1894
rradius 32.2941
rwrist 18.6798
rhand -20.4198 2.70105
rfingers 7.12502
rthumb 5.93454 -27.1958
lclavicle -7.05686e-015 -2.98177e-014
lhumerus 8.80456 -35.1426 82.4063
lradius 133.843
lwrist 54.4532
lhand -20.167 26.0125
lfingers 7.12502
lthumb 6.17854 55.9024
rfemur -16.1809 2.24338 21.1793
rtibia 33.0112
rfoot -24.2421 -8.08615
rtoes 10.0007
lfemur -10.1908 -2.81709 -24.4345
ltibia 21.2217
lfoot -14.2216 3.62461
ltoes -14.5303
12
root -0.879739 17.7212 13.0946 -172.295 -4.13634 177.673
lowerback -3.09179 -1.69377 -5.8134
upperback -1.26612 -2.14592 2.07491
thorax 0.718222 -1.08217 5.33157
lowerneck -17.7189 1.39474 -7.87713
upperneck 36.0463 8.19384 1.24322
head 15.3292 3.73008 3.68025
rclavicle 1.98288e-014 -1.15295e-014
rhumerus -32.8063 -8.64621 -77.2058
rradius 32.2886
rwrist 18.7042
rhand -20.4391 2.65261
rfingers 7.12502
rthumb 5.91585 -27.2448
lclavicle 1.98288e-014 -1.15295e-014
lhumerus 8.80297 -35.182 82.3641
lradius 133.844
lwrist 53.9804
lhand -20.7887 26.167
lfingers 7.12502
lthumb 5.57836 56.0736
rfemur -16.1974 2.27213 21.0482
rtibia 33.0287
rfoot -24.2151 -8.06414
rtoes 9.86978
lfemur -10.174 -2.78221 -24.5591
ltibia 21.1885
lfoot -14.2063 3.6336
ltoes -14.0834
13
root -0.882431 17.7208 13.0938 -172.318 -4.1021 177.704
lowerback -3.0764 -1.70182 -5.79745
upperback -1.28021 -2.15887 2.08484
thorax 0.696592 -1.08785 5.33299
lowerneck -17.6176 1.3561 -8.03058
upperneck 35.9835 8.12031 1.34444
head 15.2664 3.69624 3.72651
rclavicle 1.52567e-014 -7.95139e-016
rhumerus -32.8622 -8.70621 -77.1797
rradius 32.2872
rwrist 18.8437
rhand -20.4052 2.68457
rfingers 7.12502
rthumb 5.94862 -27.2119
lclavicle 1.52567e-014 -7.95139e-016
lhumerus 8.90224 -35.2052 82.2943
lradius 133.82
lwrist 53.5536
lhand -19.7921 25.7203
lfingers 7.12502
lthumb 6.54054 55.5993
rfemur -16.1655 2.29223 21.0712
rtibia 33.0302
rfoot -24.2364 -8.07194
rtoes 9.85394
lfemur -10.1348 -2.75347 -24.535
ltibia 21.1638
lfoot -14.1823 3.64733
ltoes -14.314
14
root -0.884345 17.7212 13.0932 -172.339 -4.05681 177.752
lowerback -3.05816 -1.69823 -5.76624
upperback -1.27931 -2.15663 2.11488
thorax 0.68706 -1.08666 5.34732
lowerneck -17.5652 1.30001 -8.12564
upperneck 35.9001 8.05865 1.29109
head 15.2191 3.6508 3.70204
rclavicle 5.01931e-014 -3.53837e-014
rhumerus -32.8383 -8.70043 -77.145
rradius 32.2488
rwrist 18.9144
rhand -20.3821 2.67904
rfingers 7.12502
rthumb 5.97095 -27.2168
lclavicle 5.01931e-014 -3.53837e-014
lhumerus 8.99767 -35.0682 82.3014
lradius 133.665
lwrist 53.0027
lhand -17.8604 25.153
lfingers 7.12502
lthumb 8.40504 54.9657
rfemur -16.1329 2.39551 21.1134
rtibia 33.0142
rfoot -24.2968 -8.10717
rtoes 10.0908
lfemur -10.1092 -2.75417 -24.4959
ltibia 21.1606
lfoot -14.1597 3.70086
ltoes -14.3542
15
root -0.886229 17.7231 13.0924 -172.356 -4.0656 177.831
lowerback -3.03389 -1.70412 -5.68243
upperback -1.27495 -2.16837 2.12877
thorax 0.677193 -1.0925 5.3143
lowerneck -17.6004 1.27294 -8.15435
upperneck 35.8598 8.02315 1.25827
head 15.2116 3.62342 3.68554
rclavicle 2.88238e-015 -1.11319e-014
rhumerus -32.8101 -8.64589 -77.1757
rradius 32.2214
rwrist 18.8205
rhand -20.4446 2.60187
rfingers 7.12502
rthumb 5.9106 -27.2957
lclavicle 2.88238e-015 -1.11319e-014
lhumerus 9.10371 -34.9028 82.2789
lradius 133.516
lwrist 52.7169
lhand -17.1265 25.0721
lfingers 7.12502
lthumb 9.11331 54.8552
rfemur -16.1067 2.44714 21.1901
rtibia 32.9964
rfoot -24.2753 -8.05705
rtoes 10.4924
lfemur -10.0854 -2.74607 -24.4154
ltibia 21.1573
lfoot -14.1864 3.67405
ltoes -14.2842
